<?xml version="1.0" encoding="UTF-8"?>
<svg id="_レイヤー_2" data-name="レイヤー 2" xmlns="http://www.w3.org/2000/svg" viewBox="0 0 675.33 38.35">
  <defs>
    <style>
      .cls-1 {
        fill: #173d48;
      }

      .cls-2 {
        fill: #fff;
      }
    </style>
  </defs>
  <g id="_レイヤー_1-2" data-name="レイヤー 1">
    <g>
      <g>
        <g>
          <path class="cls-2" d="M16.23,7.5H7.55c-.45-.95-1.02-1.64-1.71-2.04-.69-.41-1.36-.61-2-.61h-.34v-.42h14.71v.42h-.38c-.53,0-1,.23-1.41.7-.41.46-.47,1.12-.19,1.96ZM20.48,34.85L6.2,4.68h8.85l8.55,20.73-3.12,9.44ZM20.48,34.85l-.08-5.86L30.93,4.55h3.24l-11.08,24.4c-.11.2-.28.56-.51,1.07-.23.52-.46,1.09-.72,1.71-.25.62-.48,1.21-.67,1.77-.2.56-.31,1.01-.34,1.35h-.38ZM29.63,7.5c.39-.84.36-1.5-.08-1.96-.45-.46-.96-.7-1.52-.7h-.38v-.42h9.23v.42h-.38c-.62,0-1.27.2-1.96.61-.69.41-1.26,1.09-1.71,2.04h-3.2Z"/>
          <path class="cls-2" d="M20.48,38.35c-.07,0-.14,0-.2,0-.76-.04-1.45-.33-2-.78-.21-.17-.4-.36-.56-.58-.17-.22-.31-.45-.42-.71L4.25,8.75c-.13-.22-.21-.29-.21-.29-.16-.1-.25-.12-.25-.12h-.28c-1.93,0-3.5-1.56-3.5-3.5v-.42C0,2.49,1.57.93,3.5.93h14.71c1.93,0,3.5,1.57,3.5,3.5v.42c0,1.23-.63,2.31-1.59,2.94l2.75,6.66,2.87-6.66c-.95-.63-1.59-1.7-1.59-2.93v-.42c0-1.93,1.57-3.5,3.5-3.5h9.23c1.93,0,3.5,1.57,3.5,3.5v.42c0,1.93-1.57,3.5-3.5,3.5h-.34s-.07.04-.22.12h0s-.09.08-.23.34l-9.81,21.59c-.04.1-.09.19-.15.29-.08.14-.18.39-.33.73-.22.5-.45,1.05-.69,1.64-.23.56-.43,1.09-.61,1.6-.13.38-.16.53-.16.54-.15,1.82-1.66,3.16-3.48,3.16h-.36s-.01,0-.02,0ZM13.06,11l5.9,12.47.02-.06-5.12-12.41h-.81Z"/>
        </g>
        <g>
          <path class="cls-2" d="M53.94,3.84c3.51,0,6.55.62,9.1,1.85,2.56,1.24,4.52,2.99,5.9,5.27,1.38,2.28,2.06,5.01,2.06,8.22s-.69,5.91-2.06,8.2c-1.38,2.29-3.34,4.05-5.9,5.29-2.56,1.24-5.59,1.85-9.1,1.85s-6.54-.62-9.08-1.85c-2.54-1.24-4.5-2.99-5.88-5.27-1.38-2.28-2.06-5.01-2.06-8.22s.69-5.91,2.06-8.2c1.38-2.29,3.34-4.05,5.88-5.29,2.54-1.24,5.57-1.85,9.08-1.85ZM53.94,32.58c1.85,0,3.45-.54,4.78-1.62,1.33-1.08,2.36-2.62,3.08-4.61.72-1.99,1.07-4.38,1.07-7.16s-.36-5.17-1.07-7.16c-.72-1.99-1.74-3.53-3.08-4.61-1.33-1.08-2.93-1.62-4.78-1.62s-3.44.54-4.76,1.62c-1.32,1.08-2.34,2.62-3.06,4.61-.72,2-1.07,4.38-1.07,7.16s.36,5.17,1.07,7.16c.72,2,1.73,3.53,3.06,4.61,1.32,1.08,2.91,1.62,4.76,1.62Z"/>
          <path class="cls-2" d="M53.94,38.02c-4.03,0-7.6-.74-10.61-2.21-3.15-1.53-5.62-3.75-7.34-6.6-1.71-2.82-2.57-6.19-2.57-10.03s.86-7.17,2.57-10c1.72-2.87,4.2-5.1,7.35-6.63,3.01-1.46,6.58-2.21,10.61-2.21s7.6.74,10.63,2.2c3.17,1.53,5.64,3.75,7.37,6.61,1.71,2.82,2.57,6.2,2.57,10.03s-.86,7.17-2.56,10c-1.73,2.87-4.21,5.11-7.38,6.64-3.02,1.46-6.6,2.2-10.63,2.2ZM53.94,9.28c-1.04,0-1.85.26-2.54.83-.82.67-1.48,1.71-1.98,3.09-.58,1.61-.87,3.62-.87,5.98s.29,4.38.87,5.98c.5,1.38,1.16,2.42,1.98,3.09.69.57,1.5.83,2.55.83s1.87-.27,2.58-.84c.82-.67,1.49-1.7,1.99-3.08.58-1.6.87-3.62.87-5.98s-.29-4.38-.87-5.98c-.49-1.37-1.16-2.41-1.99-3.08-.71-.57-1.53-.84-2.58-.84ZM42.42,12.11c-.16.22-.3.44-.44.67-1.05,1.75-1.56,3.84-1.56,6.39s.52,4.7,1.56,6.41c.14.24.29.47.45.69-.58-2.08-.88-4.46-.88-7.09s.29-4.99.87-7.07ZM65.5,12.08c.58,2.08.88,4.46.88,7.09s-.29,4.99-.87,7.07c.16-.22.3-.44.44-.67,1.05-1.75,1.56-3.84,1.56-6.39s-.52-4.69-1.56-6.41c-.14-.24-.29-.46-.45-.69Z"/>
        </g>
        <g>
          <path class="cls-2" d="M83.36,7.46l-8.3-.13c-.39-.65-.97-1.22-1.73-1.73-.76-.51-1.59-.76-2.49-.76h-.59v-.42h15.09v.42h-.51c-.62,0-1.1.29-1.43.86-.34.58-.35,1.16-.04,1.75ZM81.71,4.47l8.72,15.8-7.29.29-9.82-16.1h8.39ZM83.19,30.85v3.08h-3.37v-.42h.55c.73,0,1.36-.26,1.88-.78.52-.52.79-1.14.82-1.88h.13ZM90.56,20.36v13.57h-7.5v-13.57h7.5ZM97.1,4.47h3.54l-10.58,16.69-2.36-.38,9.4-16.31ZM90.44,30.85h.13c0,.73.27,1.36.8,1.88.53.52,1.17.78,1.9.78h.51v.42h-3.33v-3.08ZM95.37,7.46c.22-.39.28-.79.17-1.2-.11-.41-.32-.74-.61-1.01-.3-.27-.64-.4-1.03-.4h-.51v-.42h10.28v.42h-.59c-.87,0-1.69.25-2.46.76-.77.51-1.37,1.08-1.79,1.73l-3.46.13Z"/>
          <path class="cls-2" d="M93.77,37.43h-13.95c-1.93,0-3.5-1.57-3.5-3.5v-.42c0-1.85,1.43-3.36,3.25-3.49v-8.6l-7.3-11.97c-.07-.09-.14-.19-.2-.29-.12-.2-.36-.42-.68-.64-.18-.12-.34-.17-.54-.17h-.59c-1.93,0-3.5-1.57-3.5-3.5v-.42c0-1.93,1.57-3.5,3.5-3.5h15.09c1.93,0,3.5,1.57,3.5,3.5v.42c0,1.14-.54,2.15-1.38,2.78l1.85,3.35,1.94-3.36c-.83-.64-1.36-1.64-1.36-2.77v-.42c0-1.93,1.57-3.5,3.5-3.5h10.28c1.93,0,3.5,1.57,3.5,3.5v.42c0,1.93-1.57,3.5-3.5,3.5h-.59c-.14,0-.3.02-.55.19-.36.24-.62.48-.78.71-.02.03-.04.06-.06.1l-7.63,12.03v8.64c1.79.15,3.2,1.65,3.2,3.49v.42c0,1.93-1.57,3.5-3.5,3.5ZM86.66,30.43h.3c.02-.17.06-.35.1-.51v-5.69c-.17-.03-.34-.08-.5-.13v5.83c.05.17.08.34.1.51Z"/>
        </g>
        <g>
          <path class="cls-2" d="M104.13,30.85c-.25.56-.31,1.04-.17,1.43.14.39.39.7.74.91.35.21.7.32,1.03.32h.38v.42h-9.23v-.42h.38c.65,0,1.31-.2,2-.61.69-.41,1.26-1.09,1.71-2.04h3.16ZM113.19,3.5l.04,5.86-10.41,24.44h-3.25l10.96-24.4c.14-.2.32-.55.53-1.07.21-.52.45-1.09.72-1.71.27-.62.5-1.21.7-1.77.2-.56.31-1.01.34-1.35h.38ZM117.11,24.36v1.94h-12.18v-1.94h12.18ZM113.19,3.5l14.16,30.17h-8.85l-8.43-20.73,3.12-9.44ZM117.32,30.85h8.68c.45.96,1.02,1.64,1.71,2.04.69.41,1.35.61,2,.61h.34v.42h-14.71v-.42h.38c.56,0,1.06-.23,1.5-.7.44-.46.47-1.12.11-1.96Z"/>
          <path class="cls-2" d="M130.05,37.43h-14.71c-1.93,0-3.5-1.57-3.5-3.5v-.42c0-1.24.64-2.33,1.61-2.95l-.31-.76h-4.82l-.33.76c.97.62,1.6,1.71,1.6,2.94v.42c0,1.93-1.57,3.5-3.5,3.5h-9.23c-1.93,0-3.5-1.57-3.5-3.5v-.42c0-1.93,1.57-3.5,3.5-3.5h.37s.08-.03.23-.12c0,0,0,0,0,0,0,0,.02-.02.05-.05l9.82-21.86c.08-.18.17-.34.28-.5.06-.11.12-.26.2-.45.22-.54.47-1.14.75-1.78.23-.54.44-1.06.6-1.54.13-.38.16-.53.16-.54C109.48,1.34,110.99,0,112.81,0h.37c.07,0,.14,0,.21,0,.76.04,1.46.33,2.02.78.21.17.41.37.58.59.17.22.31.45.42.71l12.95,27.6c.1.15.16.2.16.2.17.1.25.12.25.12h.29c1.93,0,3.5,1.56,3.5,3.5v.42c0,1.93-1.57,3.5-3.5,3.5ZM114.12,32.26h.01-.01ZM120.45,27.35h.07l-.04-.09s-.02.06-.03.09ZM117.07,20.86h.04c.12,0,.25,0,.37.02l-2.8-5.98v.03s2.39,5.92,2.39,5.92ZM107.69,7.37s-.03.04-.04.06c.01-.02.03-.04.04-.06Z"/>
        </g>
        <g>
          <path class="cls-2" d="M160.52,22.13v6.95c-.67.84-1.71,1.69-3.12,2.53-1.4.84-3.08,1.54-5.04,2.09-1.95.55-4.08.82-6.38.82-3.26,0-6.1-.62-8.51-1.85-2.42-1.24-4.3-3.01-5.65-5.31-1.35-2.3-2.02-5.06-2.02-8.26s.66-5.86,1.98-8.13c1.32-2.28,3.22-4.03,5.71-5.27,2.49-1.24,5.43-1.85,8.83-1.85,1.54,0,3.09.1,4.64.29,1.54.2,2.97.45,4.28.76,1.31.31,2.37.66,3.18,1.05l-.17,7.67h-.38c-.56-2.02-1.36-3.6-2.38-4.74-1.03-1.14-2.19-1.94-3.48-2.4-1.29-.46-2.63-.7-4-.7-2.28,0-4.17.55-5.67,1.64-1.5,1.1-2.63,2.65-3.37,4.68-.74,2.02-1.12,4.47-1.12,7.33,0,2.7.34,5.03,1.01,7,.67,1.97,1.66,3.48,2.97,4.55,1.31,1.07,2.94,1.6,4.91,1.6.98,0,1.92-.16,2.82-.48.9-.32,1.66-.81,2.3-1.47.63-.66,1.03-1.45,1.2-2.38l.04-6.11c0-1.26-.72-1.9-2.15-1.9h-.67v-.42h12.98v.42h-.63c-1.46,0-2.16.63-2.11,1.9Z"/>
          <path class="cls-2" d="M145.98,38.02c-3.8,0-7.21-.75-10.11-2.24-3.01-1.54-5.39-3.78-7.07-6.66-1.66-2.84-2.5-6.21-2.5-10.03s.83-7.09,2.45-9.89c1.66-2.87,4.08-5.1,7.18-6.64,2.96-1.47,6.46-2.22,10.39-2.22,1.68,0,3.39.11,5.08.32,1.66.21,3.22.49,4.64.82,1.57.37,2.84.8,3.9,1.31,1.24.6,2.01,1.86,1.98,3.23l-.17,7.67c-.02,1.05-.51,1.99-1.27,2.62h2.78c1.93,0,3.5,1.57,3.5,3.5v.42c0,1.67-1.17,3.07-2.74,3.42v5.43c0,.79-.27,1.57-.77,2.19-.94,1.18-2.27,2.27-4.05,3.34-1.67,1-3.65,1.82-5.89,2.45-2.25.63-4.72.95-7.33.95ZM148,9.28c-1.53,0-2.71.32-3.61.97-.94.69-1.64,1.69-2.15,3.06-.6,1.63-.9,3.69-.9,6.12,0,2.3.28,4.27.82,5.86.46,1.33,1.09,2.33,1.88,2.98.67.55,1.55.81,2.69.81.58,0,1.12-.09,1.64-.28.39-.14.69-.33.95-.6.11-.11.18-.23.23-.38l.03-4.16c-1.6-.32-2.81-1.73-2.81-3.43v-.42c0-1.93,1.57-3.5,3.5-3.5h5.35c-.54-.44-.94-1.05-1.14-1.76-.41-1.49-.96-2.61-1.61-3.34-.64-.71-1.31-1.18-2.06-1.45-.92-.33-1.84-.49-2.82-.49ZM156.59,23.31l-.03,4.67c.17-.12.32-.24.46-.35v-4.32h-.43ZM135.34,11.88c-.19.26-.37.54-.54.83-1,1.72-1.51,3.87-1.51,6.38s.52,4.74,1.54,6.49c.08.13.16.26.24.39-.49-1.95-.73-4.15-.73-6.54,0-2.83.34-5.36,1-7.54Z"/>
        </g>
        <g>
          <path class="cls-2" d="M168.57,7.5h-.13c-.03-.73-.3-1.36-.82-1.88-.52-.52-1.15-.78-1.88-.78h-.55v-.42h3.37v3.08ZM168.57,30.85v3.08h-3.37v-.42h.55c.73,0,1.35-.26,1.88-.78.52-.52.79-1.14.82-1.88h.13ZM175.9,4.43v29.5h-7.46V4.43h7.46ZM187.61,4.43v1.98h-11.84v-1.98h11.84ZM185.46,18.42v1.94h-9.69v-1.94h9.69ZM186.94,31.95l1.39,1.98h-12.56v-1.98h11.17ZM190.18,24.74l-1.73,9.19h-8.72l1.52-1.98c1.38,0,2.63-.29,3.75-.86,1.12-.58,2.09-1.4,2.91-2.49.81-1.08,1.45-2.37,1.9-3.86h.38ZM185.46,14.04v4.47h-4.47v-.08c1.18-.03,2.16-.44,2.93-1.22.77-.79,1.14-1.76,1.12-2.91v-.25h.42ZM185.46,20.27v4.47h-.42v-.29c0-1.15-.38-2.11-1.14-2.89-.76-.77-1.73-1.17-2.91-1.2v-.08h4.47ZM187.61,6.28v5.39h-.42v-.42c0-1.49-.43-2.67-1.29-3.54-.86-.87-2.04-1.32-3.56-1.35v-.08h5.27ZM187.61,3.67v1.22l-5.14-.46c.62,0,1.27-.04,1.96-.13.69-.08,1.33-.18,1.92-.29.59-.11,1.01-.22,1.26-.34Z"/>
          <path class="cls-2" d="M188.46,37.43h-23.26c-1.93,0-3.5-1.57-3.5-3.5v-.42c0-1.85,1.43-3.36,3.24-3.49V8.34c-1.81-.13-3.24-1.64-3.24-3.49v-.42c0-1.93,1.57-3.5,3.5-3.5h17.28c.47,0,.99-.03,1.53-.1.6-.07,1.17-.16,1.69-.26.35-.07.51-.11.57-.13,1.07-.45,2.29-.34,3.26.29.99.65,1.59,1.75,1.59,2.94v8.01c0,1.45-.89,2.7-2.15,3.23v6.44c.27-.07.55-.1.84-.1h.38c1.04,0,2.03.46,2.69,1.27s.94,1.86.75,2.88l-1.73,9.19c-.31,1.65-1.76,2.85-3.44,2.85ZM172.04,30.43h.36v-9.13c-.08-.3-.13-.61-.13-.94v-1.94c0-.32.04-.64.13-.94V7.93h-.36c-.02.17-.06.35-.1.51v21.47c.05.17.08.34.1.51ZM179.4,28.45h1.85c.82,0,1.53-.16,2.15-.48.04-.02.09-.05.13-.07-1.18-.56-1.99-1.77-1.99-3.16v-.29c0-.3-.06-.36-.14-.44-.06-.06-.14-.14-.46-.15h-1.55v4.59ZM179.4,14.92h1.55c.32-.01.4-.09.48-.17.08-.08.12-.12.11-.37v-.34c0-1.44.87-2.68,2.12-3.22-.04-.3-.12-.52-.25-.65-.14-.14-.38-.22-.63-.26h-3.39v5.01Z"/>
        </g>
        <g>
          <path class="cls-2" d="M196.84,7.5h-.13c-.03-.73-.3-1.36-.82-1.88-.52-.52-1.15-.78-1.88-.78h-.55v-.42h3.37v3.08ZM196.84,30.85v3.08h-3.37v-.42h.55c.73,0,1.35-.26,1.88-.78.52-.52.79-1.14.82-1.88h.13ZM204.22,4.43v29.5h-7.5V4.43h7.5ZM208.94,4.43c1.26,0,2.53.13,3.79.38,1.26.25,2.41.68,3.43,1.29,1.03.6,1.84,1.42,2.44,2.44.6,1.03.91,2.31.91,3.86,0,1.12-.22,2.26-.65,3.41-.44,1.15-1.15,2.15-2.15,2.99-1,.84-2.34,1.38-4.02,1.6,1.07.31,2,.85,2.8,1.62.8.77,1.45,1.55,1.96,2.34.03.08.17.34.42.76s.58.94.99,1.56c.41.62.82,1.25,1.24,1.9.42.65.83,1.22,1.22,1.73.65.82,1.21,1.45,1.71,1.92.49.46,1,.79,1.52.97.52.18,1.13.29,1.83.32v.42h-4.68c-1.6,0-3.07-.12-4.4-.36-1.33-.24-2.52-.68-3.56-1.33-1.04-.65-1.95-1.62-2.74-2.91-.28-.42-.53-.89-.76-1.41-.23-.52-.45-1.04-.67-1.56-.23-.52-.42-1.03-.59-1.52-.17-.49-.32-.95-.46-1.39-.14-.44-.27-.81-.38-1.12-.34-.95-.72-1.64-1.16-2.04-.44-.41-.89-.67-1.37-.78v-.42h.97c.79,0,1.52-.17,2.19-.51.67-.34,1.25-.87,1.73-1.6.48-.73.81-1.7,1.01-2.91.06-.25.1-.53.13-.84.03-.31.03-.66,0-1.05-.11-2.05-.63-3.51-1.54-4.38-.91-.87-2.03-1.32-3.35-1.35h-2.65c-.14-.67-.28-1.35-.42-2.02h5.27ZM204.09,30.85h.13c0,.73.27,1.36.8,1.88.53.52,1.17.78,1.9.78h.51v.42h-3.33v-3.08Z"/>
          <path class="cls-2" d="M226.38,37.43h-4.68c-1.8,0-3.49-.14-5.02-.41-1.77-.32-3.38-.92-4.79-1.8-.35-.22-.69-.46-1.02-.72-.27,1.66-1.71,2.94-3.45,2.94h-13.95c-1.93,0-3.5-1.57-3.5-3.5v-.42c0-1.85,1.43-3.36,3.25-3.49V8.34c-1.81-.13-3.25-1.64-3.25-3.49v-.42c0-1.93,1.57-3.5,3.5-3.5h15.47c1.49,0,3,.15,4.48.45,1.64.33,3.16.9,4.52,1.7,1.54.91,2.78,2.15,3.68,3.68.92,1.57,1.39,3.46,1.39,5.63,0,1.54-.3,3.11-.88,4.65-.58,1.54-1.5,2.9-2.74,4.05.37.45.7.91,1,1.37.09.15.18.3.25.46.05.09.13.22.23.39.23.39.54.87.91,1.43.41.62.83,1.26,1.25,1.91.37.56.72,1.06,1.05,1.49.65.82,1.09,1.28,1.34,1.52.18.17.28.22.28.22.1.04.35.1.81.12,1.88.07,3.36,1.62,3.36,3.5v.42c0,1.93-1.57,3.5-3.5,3.5ZM200.32,30.43h.3c.02-.17.06-.35.1-.51V7.93h-.4c-.02.17-.05.34-.1.51v21.48c.05.17.08.34.1.51ZM212.41,24.05c.11.3.23.61.37.92l.67,1.56c.14.33.29.62.46.86.03.04.05.08.08.12.49.81,1.03,1.4,1.6,1.75.35.22.73.4,1.14.55l-.79-1.21c-.44-.67-.79-1.23-1.07-1.68-.2-.34-.36-.6-.48-.84-.34-.5-.79-1.02-1.33-1.54-.2-.19-.42-.35-.65-.49ZM220.66,22.97c.04.1.08.19.11.29-.02-.06-.05-.16-.11-.29ZM214.95,14.73c-.07.41-.15.8-.24,1.17.41-.4.7-.83.88-1.33.29-.76.43-1.47.43-2.18,0-.89-.15-1.61-.42-2.08-.23-.39-.5-.7-.84-.96.2.81.33,1.69.38,2.64.04.53.04,1.06,0,1.56-.04.42-.1.82-.17,1.18ZM207.72,10.39v4.39c.11-.25.24-.65.34-1.26.01-.07.02-.13.04-.2.03-.12.04-.26.06-.4,0-.06.01-.22,0-.49-.07-1.33-.33-1.88-.43-2.04Z"/>
        </g>
        <g>
          <path class="cls-2" d="M236.96,3.63c.28.11.71.23,1.29.34.58.11,1.21.21,1.92.29.7.08,1.35.13,1.94.13l-5.14.46v-1.22ZM264.73,4.39v1.94h-27.77v-1.94h27.77ZM242.23,6.2v.13c-1.52.03-2.7.48-3.56,1.35-.86.87-1.29,2.05-1.29,3.54v.38l-.42.04v-5.44h5.27ZM247.24,30.85v3.08h-3.37v-.42h.55c.73,0,1.36-.26,1.88-.78.52-.52.79-1.14.82-1.88h.13ZM254.57,4.55v29.37h-7.46V4.55h7.46ZM254.45,30.85h.13c.03.73.3,1.36.82,1.88.52.52,1.14.78,1.88.78h.55v.42h-3.37v-3.08ZM264.73,6.2v5.44l-.42-.04v-.38c0-1.49-.43-2.67-1.29-3.54-.86-.87-2.04-1.32-3.56-1.35v-.13h5.27ZM264.73,3.63v1.22l-5.14-.46c.62,0,1.27-.04,1.96-.13.69-.08,1.33-.18,1.92-.29.59-.11,1.01-.22,1.26-.34Z"/>
          <path class="cls-2" d="M257.82,37.43h-13.95c-1.93,0-3.5-1.57-3.5-3.5v-.42c0-1.85,1.43-3.36,3.24-3.49V9.82h-1.35c-.38,0-.87.07-1.1.3-.19.19-.28.55-.28,1.09v.38c0,1.8-1.36,3.3-3.15,3.48l-.42.04c-.98.1-1.96-.22-2.7-.89-.73-.66-1.15-1.61-1.15-2.6V3.63c0-1.16.58-2.25,1.54-2.9.96-.65,2.17-.78,3.25-.35.03.01.22.07.67.16.49.1,1.05.18,1.67.26.56.07,1.07.1,1.52.1h17.49c.47,0,.99-.03,1.53-.1.6-.07,1.17-.16,1.69-.26.35-.07.52-.11.57-.13,1.07-.45,2.29-.34,3.26.29.99.65,1.59,1.75,1.59,2.94v8.01c0,.99-.42,1.93-1.15,2.6-.73.66-1.71.99-2.7.89l-.42-.04c-1.79-.18-3.15-1.68-3.15-3.48v-.38c0-.53-.09-.9-.28-1.09-.23-.23-.72-.29-1.1-.3h-1.35v20.19c1.81.13,3.24,1.64,3.24,3.49v.42c0,1.93-1.57,3.5-3.5,3.5ZM250.72,30.43h.26c.02-.17.06-.35.1-.51V9.82h-.46v20.09c.05.17.08.34.1.51Z"/>
        </g>
        <g>
          <path class="cls-2" d="M267.89,30.85c-.25.56-.31,1.04-.17,1.43.14.39.39.7.74.91.35.21.7.32,1.03.32h.38v.42h-9.23v-.42h.38c.65,0,1.31-.2,2-.61.69-.41,1.26-1.09,1.71-2.04h3.16ZM276.95,3.5l.04,5.86-10.41,24.44h-3.25l10.96-24.4c.14-.2.32-.55.53-1.07.21-.52.45-1.09.72-1.71.27-.62.5-1.21.7-1.77.2-.56.31-1.01.34-1.35h.38ZM280.87,24.36v1.94h-12.18v-1.94h12.18ZM276.95,3.5l14.16,30.17h-8.85l-8.43-20.73,3.12-9.44ZM281.08,30.85h8.68c.45.96,1.02,1.64,1.71,2.04.69.41,1.35.61,2,.61h.34v.42h-14.71v-.42h.38c.56,0,1.06-.23,1.5-.7.44-.46.47-1.12.11-1.96Z"/>
          <path class="cls-2" d="M293.81,37.43h-14.71c-1.93,0-3.5-1.57-3.5-3.5v-.42c0-1.24.64-2.33,1.61-2.95l-.31-.76h-4.82l-.33.76c.97.62,1.6,1.71,1.6,2.94v.42c0,1.93-1.57,3.5-3.5,3.5h-9.23c-1.93,0-3.5-1.57-3.5-3.5v-.42c0-1.93,1.57-3.5,3.5-3.5h.37s.08-.03.23-.12c0,0,0,0,0,0,0,0,.02-.02.05-.05l9.82-21.86c.08-.18.17-.34.28-.5.06-.11.12-.26.2-.45.22-.54.47-1.14.75-1.78.23-.54.44-1.06.6-1.54.13-.38.16-.53.16-.54C273.24,1.34,274.75,0,276.57,0h.37c.06,0,.14,0,.21,0,.76.04,1.46.33,2.02.78.21.17.41.37.58.59.17.22.31.45.42.71l12.95,27.6c.1.15.16.2.16.2.17.1.25.12.25.12h.29c1.93,0,3.5,1.56,3.5,3.5v.42c0,1.93-1.57,3.5-3.5,3.5ZM277.88,32.26h.01-.01ZM284.21,27.35h.07l-.04-.09s-.02.06-.03.09ZM280.83,20.86h.04c.12,0,.25,0,.37.02l-2.8-5.98v.03s2.39,5.92,2.39,5.92ZM271.45,7.37s-.03.04-.04.06c.01-.02.03-.04.04-.06Z"/>
        </g>
        <g>
          <path class="cls-2" d="M298.23,7.5h-.13c-.03-.73-.3-1.36-.82-1.88-.52-.52-1.15-.78-1.88-.78h-.55v-.42h3.37v3.08ZM298.23,30.85v3.08h-3.37v-.42h.55c.73,0,1.35-.26,1.88-.78.52-.52.79-1.14.82-1.88h.13ZM305.61,4.43v29.5h-7.5V4.43h7.5ZM310.33,4.43c1.26,0,2.53.13,3.79.38,1.26.25,2.41.68,3.43,1.29,1.03.6,1.84,1.42,2.44,2.44.6,1.03.91,2.31.91,3.86,0,1.12-.22,2.26-.65,3.41-.44,1.15-1.15,2.15-2.15,2.99-1,.84-2.34,1.38-4.02,1.6,1.07.31,2,.85,2.8,1.62.8.77,1.45,1.55,1.96,2.34.03.08.17.34.42.76s.58.94.99,1.56c.41.62.82,1.25,1.24,1.9.42.65.83,1.22,1.22,1.73.65.82,1.21,1.45,1.71,1.92.49.46,1,.79,1.52.97.52.18,1.13.29,1.83.32v.42h-4.68c-1.6,0-3.07-.12-4.4-.36-1.33-.24-2.52-.68-3.56-1.33-1.04-.65-1.95-1.62-2.74-2.91-.28-.42-.53-.89-.76-1.41-.23-.52-.45-1.04-.67-1.56-.23-.52-.42-1.03-.59-1.52-.17-.49-.32-.95-.46-1.39-.14-.44-.27-.81-.38-1.12-.34-.95-.72-1.64-1.16-2.04-.44-.41-.89-.67-1.37-.78v-.42h.97c.79,0,1.52-.17,2.19-.51.67-.34,1.25-.87,1.73-1.6.48-.73.81-1.7,1.01-2.91.06-.25.1-.53.13-.84.03-.31.03-.66,0-1.05-.11-2.05-.63-3.51-1.54-4.38-.91-.87-2.03-1.32-3.35-1.35h-2.65c-.14-.67-.28-1.35-.42-2.02h5.27ZM305.48,30.85h.13c0,.73.27,1.36.8,1.88.53.52,1.17.78,1.9.78h.51v.42h-3.33v-3.08Z"/>
          <path class="cls-2" d="M327.77,37.43h-4.68c-1.8,0-3.49-.14-5.02-.41-1.77-.32-3.38-.92-4.79-1.8-.35-.22-.69-.46-1.02-.72-.27,1.66-1.71,2.94-3.45,2.94h-13.95c-1.93,0-3.5-1.57-3.5-3.5v-.42c0-1.85,1.43-3.36,3.25-3.49V8.34c-1.81-.13-3.25-1.64-3.25-3.49v-.42c0-1.93,1.57-3.5,3.5-3.5h15.47c1.49,0,3,.15,4.48.45,1.64.33,3.16.9,4.52,1.7,1.54.91,2.78,2.15,3.68,3.68.92,1.57,1.39,3.46,1.39,5.63,0,1.54-.3,3.11-.88,4.65-.58,1.54-1.5,2.9-2.74,4.05.37.45.7.91,1,1.37.09.15.18.3.25.46.05.09.13.22.23.39.23.39.54.87.91,1.43.41.62.83,1.26,1.25,1.91.37.56.72,1.06,1.05,1.49.65.82,1.09,1.28,1.34,1.52.18.17.28.22.28.22.1.04.35.1.81.12,1.88.07,3.36,1.62,3.36,3.5v.42c0,1.93-1.57,3.5-3.5,3.5ZM301.71,30.43h.3c.02-.17.06-.35.1-.51V7.93h-.4c-.02.17-.05.34-.1.51v21.48c.05.17.08.34.1.51ZM313.8,24.05c.11.3.23.61.37.92l.67,1.56c.14.33.29.62.46.86.03.04.05.08.08.12.49.81,1.03,1.4,1.6,1.75.35.22.73.4,1.14.55l-.79-1.21c-.44-.67-.79-1.23-1.07-1.68-.2-.34-.36-.6-.48-.84-.34-.5-.79-1.02-1.33-1.54-.2-.19-.42-.35-.65-.49ZM322.05,22.97c.04.1.08.19.11.29-.02-.06-.05-.16-.11-.29ZM316.34,14.73c-.07.41-.15.8-.24,1.17.41-.4.7-.83.88-1.33.29-.76.43-1.47.43-2.18,0-.89-.15-1.61-.42-2.08-.23-.39-.5-.7-.84-.96.2.81.33,1.69.38,2.64.04.53.04,1.06,0,1.56-.04.42-.1.82-.17,1.18ZM309.11,10.39v4.39c.11-.25.24-.65.34-1.26.01-.07.02-.13.04-.2.03-.12.04-.26.06-.4,0-.06.01-.22,0-.49-.07-1.33-.33-1.88-.43-2.04Z"/>
        </g>
        <g>
          <path class="cls-2" d="M344.21,3.84c3.51,0,6.55.62,9.1,1.85,2.56,1.24,4.52,2.99,5.9,5.27,1.38,2.28,2.06,5.01,2.06,8.22s-.69,5.91-2.06,8.2c-1.38,2.29-3.34,4.05-5.9,5.29-2.56,1.24-5.59,1.85-9.1,1.85s-6.54-.62-9.08-1.85c-2.54-1.24-4.5-2.99-5.88-5.27-1.38-2.28-2.06-5.01-2.06-8.22s.69-5.91,2.06-8.2c1.38-2.29,3.34-4.05,5.88-5.29,2.54-1.24,5.57-1.85,9.08-1.85ZM344.21,32.58c1.85,0,3.45-.54,4.78-1.62,1.33-1.08,2.36-2.62,3.08-4.61.72-1.99,1.07-4.38,1.07-7.16s-.36-5.17-1.07-7.16c-.72-1.99-1.74-3.53-3.08-4.61-1.33-1.08-2.93-1.62-4.78-1.62s-3.44.54-4.76,1.62c-1.32,1.08-2.34,2.62-3.06,4.61-.72,2-1.07,4.38-1.07,7.16s.36,5.17,1.07,7.16c.72,2,1.73,3.53,3.06,4.61,1.32,1.08,2.91,1.62,4.76,1.62Z"/>
          <path class="cls-2" d="M344.21,38.02c-4.03,0-7.6-.74-10.61-2.21-3.15-1.53-5.62-3.75-7.34-6.6-1.71-2.82-2.57-6.19-2.57-10.03s.86-7.17,2.57-10c1.72-2.87,4.2-5.1,7.35-6.63,3.01-1.46,6.58-2.21,10.61-2.21s7.6.74,10.63,2.2c3.17,1.53,5.64,3.75,7.37,6.61,1.71,2.82,2.57,6.2,2.57,10.03s-.86,7.17-2.56,10c-1.73,2.87-4.21,5.11-7.38,6.64-3.02,1.46-6.6,2.2-10.63,2.2ZM344.21,9.28c-1.04,0-1.85.26-2.54.83-.82.67-1.48,1.71-1.98,3.09-.58,1.61-.87,3.62-.87,5.98s.29,4.38.87,5.98c.5,1.38,1.16,2.42,1.98,3.09.69.57,1.5.83,2.55.83s1.87-.27,2.58-.84c.82-.67,1.49-1.7,1.99-3.08.58-1.6.87-3.62.87-5.98s-.29-4.38-.87-5.98c-.49-1.37-1.16-2.41-1.99-3.08-.71-.57-1.53-.84-2.58-.84ZM332.69,12.11c-.16.22-.3.44-.44.67-1.05,1.75-1.56,3.84-1.56,6.39s.52,4.7,1.56,6.41c.14.24.29.47.45.69-.58-2.08-.88-4.46-.88-7.09s.29-4.99.87-7.07ZM355.76,12.08c.58,2.08.88,4.46.88,7.09s-.29,4.99-.87,7.07c.16-.22.3-.44.44-.67,1.05-1.75,1.56-3.84,1.56-6.39s-.52-4.69-1.56-6.41c-.14-.24-.29-.46-.45-.69Z"/>
        </g>
        <g>
          <path class="cls-2" d="M363.47,3.63c.28.11.71.23,1.29.34.58.11,1.21.21,1.92.29.7.08,1.35.13,1.94.13l-5.14.46v-1.22ZM391.24,4.39v1.94h-27.77v-1.94h27.77ZM368.73,6.2v.13c-1.52.03-2.7.48-3.56,1.35-.86.87-1.29,2.05-1.29,3.54v.38l-.42.04v-5.44h5.27ZM373.75,30.85v3.08h-3.37v-.42h.55c.73,0,1.36-.26,1.88-.78.52-.52.79-1.14.82-1.88h.13ZM381.08,4.55v29.37h-7.46V4.55h7.46ZM380.95,30.85h.13c.03.73.3,1.36.82,1.88.52.52,1.14.78,1.88.78h.55v.42h-3.37v-3.08ZM391.24,6.2v5.44l-.42-.04v-.38c0-1.49-.43-2.67-1.29-3.54-.86-.87-2.04-1.32-3.56-1.35v-.13h5.27ZM391.24,3.63v1.22l-5.14-.46c.62,0,1.27-.04,1.96-.13.69-.08,1.33-.18,1.92-.29.59-.11,1.01-.22,1.26-.34Z"/>
          <path class="cls-2" d="M384.32,37.43h-13.95c-1.93,0-3.5-1.57-3.5-3.5v-.42c0-1.85,1.43-3.36,3.24-3.49V9.82h-1.35c-.38,0-.87.07-1.1.3-.19.19-.28.55-.28,1.09v.38c0,1.8-1.36,3.3-3.15,3.48l-.42.04c-.98.1-1.96-.22-2.7-.89-.73-.66-1.15-1.61-1.15-2.6V3.63c0-1.16.58-2.25,1.54-2.9.96-.65,2.17-.78,3.25-.35.03.01.22.07.67.16.49.1,1.05.18,1.67.26.56.07,1.07.1,1.52.1h17.49c.47,0,.99-.03,1.53-.1.6-.07,1.17-.16,1.69-.26.35-.07.52-.11.57-.13,1.07-.45,2.29-.34,3.26.29.99.65,1.59,1.75,1.59,2.94v8.01c0,.99-.42,1.93-1.15,2.6-.73.66-1.71.99-2.7.89l-.42-.04c-1.79-.18-3.15-1.68-3.15-3.48v-.38c0-.53-.09-.9-.28-1.09-.23-.23-.72-.29-1.1-.3h-1.35v20.19c1.81.13,3.24,1.64,3.24,3.49v.42c0,1.93-1.57,3.5-3.5,3.5ZM377.22,30.43h.26c.02-.17.06-.35.1-.51V9.82h-.46v20.09c.05.17.08.34.1.51Z"/>
        </g>
        <g>
          <path class="cls-2" d="M434.47,21.62l.72,7.46c-.59.98-1.4,1.88-2.42,2.7-1.03.82-2.31,1.47-3.86,1.98-1.55.51-3.4.76-5.56.76-3.6-.03-6.73-.65-9.4-1.85-2.67-1.21-4.73-2.95-6.17-5.23-1.45-2.28-2.17-5.04-2.17-8.3s.71-5.91,2.13-8.2c1.42-2.29,3.46-4.05,6.13-5.27,2.67-1.22,5.86-1.83,9.57-1.83,2.3,0,4.36.21,6.17.63,1.81.42,3.31.91,4.49,1.47l-.17,7.67h-.38c-.79-2.89-2.02-4.92-3.69-6.09-1.67-1.17-3.62-1.75-5.84-1.75s-4.02.53-5.56,1.6c-1.55,1.07-2.73,2.59-3.56,4.55-.83,1.97-1.24,4.33-1.24,7.08s.39,5.18,1.18,7.18c.79,2.01,1.9,3.56,3.35,4.66,1.45,1.1,3.17,1.67,5.16,1.73,2.22,0,4.04-.34,5.46-1.03,1.42-.69,2.55-1.84,3.39-3.46.84-1.62,1.49-3.77,1.94-6.47h.34Z"/>
          <path class="cls-2" d="M423.35,38.02c-4.1-.03-7.74-.76-10.84-2.17-3.29-1.49-5.87-3.69-7.68-6.54-1.8-2.83-2.72-6.26-2.72-10.18s.89-7.2,2.65-10.04c1.78-2.88,4.35-5.1,7.65-6.61,3.12-1.43,6.83-2.15,11.02-2.15,2.56,0,4.9.24,6.97.72,2.08.48,3.78,1.05,5.2,1.72,1.24.59,2.03,1.86,2,3.24l-.17,7.67c-.04,1.9-1.6,3.42-3.5,3.42h-.38c-1.58,0-2.96-1.06-3.38-2.58-.55-2.04-1.35-3.47-2.31-4.14-1.08-.75-2.33-1.12-3.83-1.12s-2.62.32-3.57.98c-.99.69-1.76,1.68-2.33,3.03-.64,1.52-.97,3.45-.97,5.72s.32,4.32.94,5.91c.55,1.41,1.27,2.44,2.2,3.14.86.65,1.89.98,3.15,1.02,1.58,0,2.9-.23,3.83-.68.73-.36,1.33-.99,1.82-1.93.67-1.28,1.2-3.11,1.59-5.43.28-1.69,1.74-2.92,3.45-2.92h.34c1.8,0,3.31,1.37,3.48,3.17l.72,7.46c.07.75-.1,1.49-.48,2.14-.8,1.34-1.9,2.56-3.25,3.64-1.35,1.07-3.01,1.93-4.94,2.57-1.89.62-4.13.93-6.65.93ZM411.07,12.24c-.13.18-.25.36-.36.54-1.08,1.74-1.6,3.82-1.6,6.35s.53,4.71,1.62,6.42c.12.19.25.37.38.55-.63-2.1-.95-4.48-.95-7.1s.31-4.76.92-6.77Z"/>
        </g>
        <g>
          <path class="cls-2" d="M442.81,7.5h-.13c-.03-.73-.3-1.36-.82-1.88-.52-.52-1.15-.78-1.88-.78h-.55v-.42h3.37v3.08ZM442.81,30.85v3.08h-3.37v-.42h.55c.73,0,1.35-.26,1.88-.78.52-.52.79-1.14.82-1.88h.13ZM450.19,4.43v29.5h-7.5V4.43h7.5ZM454.91,4.43c1.26,0,2.53.13,3.79.38,1.26.25,2.41.68,3.43,1.29,1.03.6,1.84,1.42,2.44,2.44.6,1.03.91,2.31.91,3.86,0,1.12-.22,2.26-.65,3.41-.44,1.15-1.15,2.15-2.15,2.99-1,.84-2.34,1.38-4.02,1.6,1.07.31,2,.85,2.8,1.62.8.77,1.45,1.55,1.96,2.34.03.08.17.34.42.76s.58.94.99,1.56c.41.62.82,1.25,1.24,1.9.42.65.83,1.22,1.22,1.73.65.82,1.21,1.45,1.71,1.92.49.46,1,.79,1.52.97.52.18,1.13.29,1.83.32v.42h-4.68c-1.6,0-3.07-.12-4.4-.36-1.33-.24-2.52-.68-3.56-1.33-1.04-.65-1.95-1.62-2.74-2.91-.28-.42-.53-.89-.76-1.41-.23-.52-.45-1.04-.67-1.56-.23-.52-.42-1.03-.59-1.52-.17-.49-.32-.95-.46-1.39-.14-.44-.27-.81-.38-1.12-.34-.95-.72-1.64-1.16-2.04-.44-.41-.89-.67-1.37-.78v-.42h.97c.79,0,1.52-.17,2.19-.51.67-.34,1.25-.87,1.73-1.6.48-.73.81-1.7,1.01-2.91.06-.25.1-.53.13-.84.03-.31.03-.66,0-1.05-.11-2.05-.63-3.51-1.54-4.38-.91-.87-2.03-1.32-3.35-1.35h-2.65c-.14-.67-.28-1.35-.42-2.02h5.27ZM450.06,30.85h.13c0,.73.27,1.36.8,1.88.53.52,1.17.78,1.9.78h.51v.42h-3.33v-3.08Z"/>
          <path class="cls-2" d="M472.36,37.43h-4.68c-1.8,0-3.49-.14-5.02-.41-1.77-.32-3.38-.92-4.79-1.8-.35-.22-.69-.46-1.02-.72-.27,1.66-1.71,2.94-3.45,2.94h-13.95c-1.93,0-3.5-1.57-3.5-3.5v-.42c0-1.85,1.43-3.36,3.25-3.49V8.34c-1.81-.13-3.25-1.64-3.25-3.49v-.42c0-1.93,1.57-3.5,3.5-3.5h15.47c1.49,0,3,.15,4.48.45,1.64.33,3.16.9,4.52,1.7,1.54.91,2.78,2.15,3.68,3.68.92,1.57,1.39,3.46,1.39,5.63,0,1.54-.3,3.11-.88,4.65-.58,1.54-1.5,2.9-2.74,4.05.37.45.7.91,1,1.37.09.15.18.3.25.46.05.09.13.22.23.39.23.39.54.87.91,1.43.41.62.83,1.26,1.25,1.91.37.56.72,1.06,1.05,1.49.65.82,1.09,1.28,1.34,1.52.18.17.28.22.28.22.1.04.35.1.81.12,1.88.07,3.36,1.62,3.36,3.5v.42c0,1.93-1.57,3.5-3.5,3.5ZM446.29,30.43h.3c.02-.17.06-.35.1-.51V7.93h-.4c-.02.17-.05.34-.1.51v21.48c.05.17.08.34.1.51ZM458.38,24.05c.11.3.23.61.37.92l.67,1.56c.14.33.29.62.46.86.03.04.05.08.08.12.49.81,1.03,1.4,1.6,1.75.35.22.73.4,1.14.55l-.79-1.21c-.44-.67-.79-1.23-1.07-1.68-.2-.34-.36-.6-.48-.84-.34-.5-.79-1.02-1.33-1.54-.2-.19-.42-.35-.65-.49ZM466.63,22.97c.04.1.08.19.11.29-.02-.06-.05-.16-.11-.29ZM460.92,14.73c-.07.41-.15.8-.24,1.17.41-.4.7-.83.88-1.33.29-.76.43-1.47.43-2.18,0-.89-.15-1.61-.42-2.08-.23-.39-.5-.7-.84-.96.2.81.33,1.69.38,2.64.04.53.04,1.06,0,1.56-.04.42-.1.82-.17,1.18ZM453.69,10.39v4.39c.11-.25.24-.65.34-1.26.01-.07.02-.13.04-.2.03-.12.04-.26.06-.4,0-.06.01-.22,0-.49-.07-1.33-.33-1.88-.43-2.04Z"/>
        </g>
        <g>
          <path class="cls-2" d="M475.68,7.5h-.13c-.03-.73-.3-1.36-.82-1.88-.52-.52-1.15-.78-1.88-.78h-.55v-.42h3.37v3.08ZM475.68,30.85v3.08h-3.37v-.42h.55c.73,0,1.35-.26,1.88-.78.52-.52.79-1.14.82-1.88h.13ZM483.02,4.43v29.5h-7.46V4.43h7.46ZM494.73,4.43v1.98h-11.84v-1.98h11.84ZM492.58,18.42v1.94h-9.69v-1.94h9.69ZM494.06,31.95l1.39,1.98h-12.56v-1.98h11.17ZM497.3,24.74l-1.73,9.19h-8.72l1.52-1.98c1.38,0,2.63-.29,3.75-.86,1.12-.58,2.09-1.4,2.91-2.49.81-1.08,1.45-2.37,1.9-3.86h.38ZM492.58,14.04v4.47h-4.47v-.08c1.18-.03,2.16-.44,2.93-1.22.77-.79,1.14-1.76,1.12-2.91v-.25h.42ZM492.58,20.27v4.47h-.42v-.29c0-1.15-.38-2.11-1.14-2.89-.76-.77-1.73-1.17-2.91-1.2v-.08h4.47ZM494.73,6.28v5.39h-.42v-.42c0-1.49-.43-2.67-1.29-3.54-.86-.87-2.04-1.32-3.56-1.35v-.08h5.27ZM494.73,3.67v1.22l-5.14-.46c.62,0,1.27-.04,1.96-.13.69-.08,1.33-.18,1.92-.29.59-.11,1.01-.22,1.26-.34Z"/>
          <path class="cls-2" d="M495.58,37.43h-23.26c-1.93,0-3.5-1.57-3.5-3.5v-.42c0-1.85,1.43-3.36,3.24-3.49V8.34c-1.81-.13-3.24-1.64-3.24-3.49v-.42c0-1.93,1.57-3.5,3.5-3.5h17.28c.47,0,.99-.03,1.53-.1.6-.07,1.17-.16,1.69-.26.35-.07.51-.11.57-.13,1.07-.45,2.29-.34,3.26.29.99.65,1.59,1.75,1.59,2.94v8.01c0,1.45-.89,2.7-2.15,3.23v6.44c.27-.07.55-.1.84-.1h.38c1.04,0,2.03.46,2.69,1.27s.94,1.86.75,2.88l-1.73,9.19c-.31,1.65-1.76,2.85-3.44,2.85ZM479.16,30.43h.36v-9.13c-.08-.3-.13-.61-.13-.94v-1.94c0-.32.04-.64.13-.94V7.93h-.36c-.02.17-.06.35-.1.51v21.47c.05.17.08.34.1.51ZM486.52,28.45h1.85c.82,0,1.53-.16,2.15-.48.04-.02.09-.05.13-.07-1.18-.56-1.99-1.77-1.99-3.16v-.29c0-.3-.06-.36-.14-.44-.06-.06-.14-.14-.46-.15h-1.55v4.59ZM486.52,14.92h1.55c.32-.01.4-.09.48-.17.08-.08.12-.12.11-.37v-.34c0-1.44.87-2.68,2.12-3.22-.04-.3-.12-.52-.25-.65-.14-.14-.38-.22-.63-.26h-3.39v5.01Z"/>
        </g>
        <g>
          <path class="cls-2" d="M504.8,30.85c-.25.56-.31,1.04-.17,1.43.14.39.39.7.74.91.35.21.7.32,1.03.32h.38v.42h-9.23v-.42h.38c.65,0,1.31-.2,2-.61.69-.41,1.26-1.09,1.71-2.04h3.16ZM513.86,3.5l.04,5.86-10.41,24.44h-3.25l10.96-24.4c.14-.2.32-.55.53-1.07.21-.52.45-1.09.72-1.71.27-.62.5-1.21.7-1.77.2-.56.31-1.01.34-1.35h.38ZM517.78,24.36v1.94h-12.18v-1.94h12.18ZM513.86,3.5l14.16,30.17h-8.85l-8.43-20.73,3.12-9.44ZM517.99,30.85h8.68c.45.96,1.02,1.64,1.71,2.04.69.41,1.35.61,2,.61h.34v.42h-14.71v-.42h.38c.56,0,1.06-.23,1.5-.7.44-.46.47-1.12.11-1.96Z"/>
          <path class="cls-2" d="M530.72,37.43h-14.71c-1.93,0-3.5-1.57-3.5-3.5v-.42c0-1.24.64-2.33,1.61-2.95l-.31-.76h-4.82l-.33.76c.97.62,1.6,1.71,1.6,2.94v.42c0,1.93-1.57,3.5-3.5,3.5h-9.23c-1.93,0-3.5-1.57-3.5-3.5v-.42c0-1.93,1.57-3.5,3.5-3.5h.37s.08-.03.23-.12c0,0,0,0,0,0,0,0,.02-.02.05-.05l9.82-21.86c.08-.18.17-.34.28-.5.06-.11.12-.26.2-.45.22-.54.47-1.14.75-1.78.23-.54.44-1.06.6-1.54.13-.38.16-.53.16-.54C510.15,1.34,511.67,0,513.48,0h.37c.07,0,.14,0,.2,0,.76.04,1.46.33,2.02.78.21.17.4.37.57.58.17.22.31.46.42.71l12.95,27.6c.1.15.16.2.16.2.17.1.25.12.25.12h.29c1.93,0,3.5,1.56,3.5,3.5v.42c0,1.93-1.57,3.5-3.5,3.5ZM514.79,32.26h.01-.01ZM521.12,27.35h.07l-.04-.09s-.02.06-.03.09ZM517.74,20.86h.04c.12,0,.25,0,.37.02l-2.8-5.98v.03s2.39,5.92,2.39,5.92ZM508.36,7.37s-.03.04-.04.06c.01-.02.03-.04.04-.06Z"/>
        </g>
        <g>
          <path class="cls-2" d="M526.63,3.63c.28.11.71.23,1.29.34.58.11,1.21.21,1.92.29.7.08,1.35.13,1.94.13l-5.14.46v-1.22ZM554.4,4.39v1.94h-27.77v-1.94h27.77ZM531.9,6.2v.13c-1.52.03-2.7.48-3.56,1.35-.86.87-1.29,2.05-1.29,3.54v.38l-.42.04v-5.44h5.27ZM536.91,30.85v3.08h-3.37v-.42h.55c.73,0,1.36-.26,1.88-.78.52-.52.79-1.14.82-1.88h.13ZM544.25,4.55v29.37h-7.46V4.55h7.46ZM544.12,30.85h.13c.03.73.3,1.36.82,1.88.52.52,1.14.78,1.88.78h.55v.42h-3.37v-3.08ZM554.4,6.2v5.44l-.42-.04v-.38c0-1.49-.43-2.67-1.29-3.54-.86-.87-2.04-1.32-3.56-1.35v-.13h5.27ZM554.4,3.63v1.22l-5.14-.46c.62,0,1.27-.04,1.96-.13.69-.08,1.33-.18,1.92-.29.59-.11,1.01-.22,1.26-.34Z"/>
          <path class="cls-2" d="M547.49,37.43h-13.95c-1.93,0-3.5-1.57-3.5-3.5v-.42c0-1.85,1.43-3.36,3.24-3.49V9.82h-1.35c-.38,0-.87.07-1.1.3-.19.19-.28.55-.28,1.09v.38c0,1.8-1.36,3.3-3.15,3.48l-.42.04c-.98.1-1.96-.22-2.7-.89-.73-.66-1.15-1.61-1.15-2.6V3.63c0-1.16.58-2.25,1.54-2.9.96-.65,2.17-.78,3.25-.35.03.01.22.07.67.16.49.1,1.05.18,1.67.26.56.07,1.07.1,1.52.1h17.49c.47,0,.99-.03,1.53-.1.6-.07,1.17-.16,1.69-.26.35-.07.52-.11.57-.13,1.07-.45,2.29-.34,3.26.29.99.65,1.59,1.75,1.59,2.94v8.01c0,.99-.42,1.93-1.15,2.6-.73.66-1.71.99-2.7.89l-.42-.04c-1.79-.18-3.15-1.68-3.15-3.48v-.38c0-.53-.09-.9-.28-1.09-.23-.23-.72-.29-1.1-.3h-1.35v20.19c1.81.13,3.24,1.64,3.24,3.49v.42c0,1.93-1.57,3.5-3.5,3.5ZM540.39,30.43h.26c.02-.17.06-.35.1-.51V9.82h-.46v20.09c.05.17.08.34.1.51Z"/>
        </g>
        <g>
          <path class="cls-2" d="M560.6,7.5h-.13c-.03-.73-.3-1.36-.82-1.88-.52-.52-1.15-.78-1.88-.78h-.55v-.42h3.37v3.08ZM560.6,30.85v3.08h-3.37v-.42h.55c.73,0,1.35-.26,1.88-.78.52-.52.79-1.14.82-1.88h.13ZM567.93,4.43v29.5h-7.46V4.43h7.46ZM567.8,7.5v-3.08h3.37v.42h-.55c-.73,0-1.36.26-1.88.78-.52.52-.79,1.15-.82,1.88h-.13ZM567.8,30.85h.13c.03.73.3,1.36.82,1.88.52.52,1.14.78,1.88.78h.55v.42h-3.37v-3.08Z"/>
          <path class="cls-2" d="M571.17,37.43h-13.95c-1.93,0-3.5-1.57-3.5-3.5v-.42c0-1.85,1.43-3.36,3.24-3.49V8.34c-1.81-.13-3.24-1.64-3.24-3.49v-.42c0-1.93,1.57-3.5,3.5-3.5h13.95c1.93,0,3.5,1.57,3.5,3.5v.42c0,1.85-1.43,3.36-3.25,3.49v21.67c1.81.13,3.25,1.64,3.25,3.49v.42c0,1.93-1.57,3.5-3.5,3.5ZM564.07,30.43h.26c.02-.17.06-.35.1-.51V8.44c-.05-.17-.08-.34-.1-.51h-.26c-.02.17-.06.35-.1.51v21.47c.05.17.08.34.1.51Z"/>
        </g>
        <g>
          <path class="cls-2" d="M591.44,3.84c3.51,0,6.55.62,9.1,1.85,2.56,1.24,4.52,2.99,5.9,5.27,1.38,2.28,2.06,5.01,2.06,8.22s-.69,5.91-2.06,8.2c-1.38,2.29-3.34,4.05-5.9,5.29-2.56,1.24-5.59,1.85-9.1,1.85s-6.54-.62-9.08-1.85c-2.54-1.24-4.5-2.99-5.88-5.27-1.38-2.28-2.06-5.01-2.06-8.22s.69-5.91,2.06-8.2c1.38-2.29,3.34-4.05,5.88-5.29,2.54-1.24,5.57-1.85,9.08-1.85ZM591.44,32.58c1.85,0,3.45-.54,4.78-1.62,1.33-1.08,2.36-2.62,3.08-4.61.72-1.99,1.07-4.38,1.07-7.16s-.36-5.17-1.07-7.16c-.72-1.99-1.74-3.53-3.08-4.61-1.33-1.08-2.93-1.62-4.78-1.62s-3.44.54-4.76,1.62c-1.32,1.08-2.34,2.62-3.06,4.61-.72,2-1.07,4.38-1.07,7.16s.36,5.17,1.07,7.16c.72,2,1.73,3.53,3.06,4.61,1.32,1.08,2.91,1.62,4.76,1.62Z"/>
          <path class="cls-2" d="M591.44,38.02c-4.03,0-7.6-.74-10.61-2.21-3.15-1.53-5.62-3.75-7.34-6.6-1.71-2.82-2.57-6.19-2.57-10.03s.86-7.17,2.57-10c1.72-2.87,4.2-5.1,7.35-6.63,3.01-1.46,6.58-2.21,10.61-2.21s7.6.74,10.63,2.2c3.17,1.53,5.64,3.75,7.37,6.61,1.71,2.82,2.57,6.2,2.57,10.03s-.86,7.17-2.56,10c-1.73,2.87-4.21,5.11-7.38,6.64-3.02,1.46-6.6,2.2-10.63,2.2ZM591.44,9.28c-1.04,0-1.85.26-2.54.83-.82.67-1.48,1.71-1.98,3.09-.58,1.61-.87,3.62-.87,5.98s.29,4.38.87,5.98c.5,1.38,1.16,2.42,1.98,3.09.69.57,1.5.83,2.55.83s1.87-.27,2.58-.84c.82-.67,1.49-1.7,1.99-3.08.58-1.6.87-3.62.87-5.98s-.29-4.38-.87-5.98c-.49-1.37-1.16-2.41-1.99-3.08-.71-.57-1.53-.84-2.58-.84ZM579.93,12.11c-.16.22-.3.44-.44.67-1.05,1.75-1.56,3.84-1.56,6.39s.52,4.7,1.56,6.41c.14.24.29.47.45.69-.58-2.08-.88-4.46-.88-7.09s.29-4.99.87-7.07ZM603,12.08c.58,2.08.88,4.46.88,7.09s-.29,4.99-.87,7.07c.16-.22.3-.44.44-.67,1.05-1.75,1.56-3.84,1.56-6.39s-.52-4.69-1.56-6.41c-.14-.24-.29-.46-.45-.69Z"/>
        </g>
        <g>
          <path class="cls-2" d="M614.79,30.93v2.99h-3.5v-.42h.8c.7,0,1.31-.25,1.81-.76.51-.51.76-1.11.76-1.81h.13ZM614.58,3.8l7.38,7.8.04,22.33h-7.33V9.06c0-1.6-.17-3.36-.51-5.27h.42ZM614.58,3.8l27.64,25.45.51,5.27-27.64-25.41-.51-5.31ZM622,30.93c0,.7.25,1.31.76,1.81.51.51,1.11.76,1.81.76h.8v.42h-3.5v-2.99h.13ZM631.9,4.43h3.5v2.99h-.08c-.03-.73-.29-1.34-.78-1.83-.49-.49-1.1-.74-1.83-.74h-.8v-.42ZM642.6,4.43v24.69c0,1.1.05,2.05.15,2.87.1.82.22,1.66.36,2.53h-.38l-7.42-8.3V4.43h7.29ZM645.97,4.43v.42h-.76c-.7,0-1.31.25-1.81.74-.51.49-.77,1.1-.8,1.83h-.13v-2.99h3.5Z"/>
          <path class="cls-2" d="M642.73,38.02c-.1,0-.2,0-.3-.01,0,0,0,0,0,0-.14-.01-.28-.03-.42-.06-.55-.12-1.08-.36-1.53-.74,0,0,0,0,0,0-.04-.04-.09-.08-.13-.11l-14.88-13.67v6.6c1.89.06,3.39,1.61,3.39,3.5v.42c0,1.93-1.57,3.5-3.5,3.5h-14.07c-1.93,0-3.5-1.57-3.5-3.5v-.42c0-1.89,1.5-3.43,3.37-3.5V9.06c0-1.39-.15-2.96-.45-4.66-.18-1.02.1-2.07.77-2.86s1.65-1.25,2.68-1.25h.4c.1,0,.21,0,.31.01,0,0,0,0,0,0,.14.01.28.03.41.06.03,0,0,0,0,0,0,0-.02,0,0,0,.57.12,1.11.38,1.56.77,0,0,0,0,0,0,.03.03.06.06.09.08l14.86,13.68v-6.56c-1.89-.05-3.41-1.59-3.41-3.5v-.42c0-1.93,1.57-3.5,3.5-3.5h14.08c1.93,0,3.5,1.57,3.5,3.5v.42c0,1.89-1.5,3.43-3.37,3.5v20.78c0,.95.04,1.78.12,2.44.09.77.21,1.57.34,2.39.17,1.01-.12,2.05-.79,2.83s-1.64,1.23-2.67,1.23h-.36s-.01,0-.02,0ZM625.5,30.93h0,0ZM618.25,30.43h.15c.02-.14.05-.27.08-.4l-.02-13.06-.3-.28v13.31c.04.14.07.28.09.43ZM638.81,21.35l.29.27v-13.26c-.04-.14-.07-.28-.09-.43h-.15c-.01.09-.03.18-.05.26v13.16Z"/>
        </g>
        <g>
          <path class="cls-2" d="M659.92,3.84c.56,0,1.31.03,2.25.08.94.06,1.91.13,2.91.23,1,.1,1.88.2,2.63.29.76.1,1.26.2,1.52.32l-.67,6.03h-.42c0-1.49-.57-2.7-1.71-3.62-1.14-.93-2.68-1.39-4.61-1.39-1.69,0-3.03.36-4.02,1.07s-1.52,1.62-1.58,2.72c-.08.93.21,1.69.88,2.28.67.59,1.49,1.14,2.44,1.64l7.96,4.47c1.43.7,2.54,1.69,3.31,2.95s1.1,2.8.99,4.59c-.14,2.89-1.29,5.12-3.43,6.68-2.15,1.56-5.06,2.34-8.74,2.34-1.43,0-2.77-.11-4-.34-1.24-.23-2.32-.54-3.25-.95-.93-.41-1.66-.86-2.19-1.37-.25-.65-.36-1.45-.32-2.4.04-.95.2-1.9.48-2.84.28-.94.62-1.71,1.01-2.3h.38c-.08,1.46.2,2.82.86,4.09.66,1.26,1.65,2.28,2.97,3.03,1.32.76,2.89,1.14,4.72,1.14,1.94-.03,3.41-.48,4.4-1.35,1-.87,1.5-1.9,1.5-3.08,0-.9-.31-1.71-.93-2.42-.62-.72-1.62-1.41-2.99-2.09l-7.12-4.05c-1.71-.87-2.96-2.03-3.73-3.48-.77-1.45-1.06-3.06-.86-4.83.14-1.54.6-2.87,1.39-3.98.79-1.11,1.85-1.97,3.2-2.57,1.35-.6,2.94-.91,4.76-.91ZM669.32,4.26l-.13.88h-5.52v-.88h5.65Z"/>
          <path class="cls-2" d="M659.63,38.02c-1.63,0-3.19-.13-4.63-.39-1.5-.27-2.86-.67-4.03-1.19-1.31-.57-2.35-1.24-3.19-2.03-.37-.35-.67-.79-.85-1.27-.44-1.11-.62-2.37-.55-3.83.05-1.24.27-2.48.63-3.69.38-1.29.86-2.35,1.46-3.24.54-.81,1.4-1.35,2.35-1.51-1.02-.89-1.84-1.93-2.46-3.09-1.11-2.08-1.53-4.38-1.25-6.86.19-2.09.87-4,2.01-5.62,1.15-1.62,2.71-2.88,4.63-3.74,1.8-.8,3.88-1.21,6.19-1.21.63,0,1.44.03,2.46.09.99.06,2,.14,3.04.24.3.03.59.06.86.09h3.03c1.01,0,1.98.44,2.64,1.21.67.77.96,1.78.82,2.79l-.12.85-.62,5.58c-.2,1.77-1.7,3.11-3.48,3.11h-.42s0,0,0,0l1.01.57c1.99.99,3.56,2.41,4.66,4.22,1.15,1.88,1.65,4.12,1.5,6.64-.19,3.89-1.87,7.12-4.87,9.29-2.75,1.99-6.38,3.01-10.8,3.01ZM655.18,23.63c.06.29.08.59.06.88-.05.83.11,1.57.47,2.26.35.67.88,1.2,1.61,1.62.79.45,1.76.67,2.98.67,1.46-.02,1.98-.38,2.1-.48.3-.26.3-.37.3-.44,0-.03-.02-.07-.08-.14-.11-.12-.56-.58-1.88-1.23-.06-.03-.13-.06-.19-.1l-5.37-3.05ZM663.92,20.55c1.77.88,3.08,1.83,4,2.89.11.13.22.26.32.39-.08-.42-.22-.79-.41-1.1-.42-.69-1.03-1.22-1.86-1.63-.06-.03-.12-.06-.17-.09l-7.96-4.47c-1.11-.59-2.16-1.3-3.04-2.06-.17-.15-.34-.31-.49-.48.06.16.13.32.22.47.43.81,1.16,1.46,2.23,2,.05.02.1.05.14.08l7.03,4ZM659.93,9.63c.36.26.78.52,1.25.76l3.98,2.23c-.33-.53-.52-1.16-.52-1.83,0-.49-.13-.68-.42-.91-.49-.4-1.3-.6-2.4-.6-.83,0-1.49.12-1.88.35Z"/>
        </g>
      </g>
      <g>
        <path class="cls-1" d="M16.23,7.5H7.55c-.45-.95-1.02-1.64-1.71-2.04-.69-.41-1.36-.61-2-.61h-.34v-.42h14.71v.42h-.38c-.53,0-1,.23-1.41.7-.41.46-.47,1.12-.19,1.96ZM20.48,34.85L6.2,4.68h8.85l8.55,20.73-3.12,9.44ZM20.48,34.85l-.08-5.86L30.93,4.55h3.24l-11.08,24.4c-.11.2-.28.56-.51,1.07-.23.52-.46,1.09-.72,1.71-.25.62-.48,1.21-.67,1.77-.2.56-.31,1.01-.34,1.35h-.38ZM29.63,7.5c.39-.84.36-1.5-.08-1.96-.45-.46-.96-.7-1.52-.7h-.38v-.42h9.23v.42h-.38c-.62,0-1.27.2-1.96.61-.69.41-1.26,1.09-1.71,2.04h-3.2Z"/>
        <path class="cls-1" d="M53.94,3.84c3.51,0,6.55.62,9.1,1.85,2.56,1.24,4.52,2.99,5.9,5.27,1.38,2.28,2.06,5.01,2.06,8.22s-.69,5.91-2.06,8.2c-1.38,2.29-3.34,4.05-5.9,5.29-2.56,1.24-5.59,1.85-9.1,1.85s-6.54-.62-9.08-1.85c-2.54-1.24-4.5-2.99-5.88-5.27-1.38-2.28-2.06-5.01-2.06-8.22s.69-5.91,2.06-8.2c1.38-2.29,3.34-4.05,5.88-5.29,2.54-1.24,5.57-1.85,9.08-1.85ZM53.94,32.58c1.85,0,3.45-.54,4.78-1.62,1.33-1.08,2.36-2.62,3.08-4.61.72-1.99,1.07-4.38,1.07-7.16s-.36-5.17-1.07-7.16c-.72-1.99-1.74-3.53-3.08-4.61-1.33-1.08-2.93-1.62-4.78-1.62s-3.44.54-4.76,1.62c-1.32,1.08-2.34,2.62-3.06,4.61-.72,2-1.07,4.38-1.07,7.16s.36,5.17,1.07,7.16c.72,2,1.73,3.53,3.06,4.61,1.32,1.08,2.91,1.62,4.76,1.62Z"/>
        <path class="cls-1" d="M83.36,7.46l-8.3-.13c-.39-.65-.97-1.22-1.73-1.73-.76-.51-1.59-.76-2.49-.76h-.59v-.42h15.09v.42h-.51c-.62,0-1.1.29-1.43.86-.34.58-.35,1.16-.04,1.75ZM81.71,4.47l8.72,15.8-7.29.29-9.82-16.1h8.39ZM83.19,30.85v3.08h-3.37v-.42h.55c.73,0,1.36-.26,1.88-.78.52-.52.79-1.14.82-1.88h.13ZM90.56,20.36v13.57h-7.5v-13.57h7.5ZM97.1,4.47h3.54l-10.58,16.69-2.36-.38,9.4-16.31ZM90.44,30.85h.13c0,.73.27,1.36.8,1.88.53.52,1.17.78,1.9.78h.51v.42h-3.33v-3.08ZM95.37,7.46c.22-.39.28-.79.17-1.2-.11-.41-.32-.74-.61-1.01-.3-.27-.64-.4-1.03-.4h-.51v-.42h10.28v.42h-.59c-.87,0-1.69.25-2.46.76-.77.51-1.37,1.08-1.79,1.73l-3.46.13Z"/>
        <path class="cls-1" d="M104.13,30.85c-.25.56-.31,1.04-.17,1.43.14.39.39.7.74.91.35.21.7.32,1.03.32h.38v.42h-9.23v-.42h.38c.65,0,1.31-.2,2-.61.69-.41,1.26-1.09,1.71-2.04h3.16ZM113.19,3.5l.04,5.86-10.41,24.44h-3.25l10.96-24.4c.14-.2.32-.55.53-1.07.21-.52.45-1.09.72-1.71.27-.62.5-1.21.7-1.77.2-.56.31-1.01.34-1.35h.38ZM117.11,24.36v1.94h-12.18v-1.94h12.18ZM113.19,3.5l14.16,30.17h-8.85l-8.43-20.73,3.12-9.44ZM117.32,30.85h8.68c.45.96,1.02,1.64,1.71,2.04.69.41,1.35.61,2,.61h.34v.42h-14.71v-.42h.38c.56,0,1.06-.23,1.5-.7.44-.46.47-1.12.11-1.96Z"/>
        <path class="cls-1" d="M160.52,22.13v6.95c-.67.84-1.71,1.69-3.12,2.53-1.4.84-3.08,1.54-5.04,2.09-1.95.55-4.08.82-6.38.82-3.26,0-6.1-.62-8.51-1.85-2.42-1.24-4.3-3.01-5.65-5.31-1.35-2.3-2.02-5.06-2.02-8.26s.66-5.86,1.98-8.13c1.32-2.28,3.22-4.03,5.71-5.27,2.49-1.24,5.43-1.85,8.83-1.85,1.54,0,3.09.1,4.64.29,1.54.2,2.97.45,4.28.76,1.31.31,2.37.66,3.18,1.05l-.17,7.67h-.38c-.56-2.02-1.36-3.6-2.38-4.74-1.03-1.14-2.19-1.94-3.48-2.4-1.29-.46-2.63-.7-4-.7-2.28,0-4.17.55-5.67,1.64-1.5,1.1-2.63,2.65-3.37,4.68-.74,2.02-1.12,4.47-1.12,7.33,0,2.7.34,5.03,1.01,7,.67,1.97,1.66,3.48,2.97,4.55,1.31,1.07,2.94,1.6,4.91,1.6.98,0,1.92-.16,2.82-.48.9-.32,1.66-.81,2.3-1.47.63-.66,1.03-1.45,1.2-2.38l.04-6.11c0-1.26-.72-1.9-2.15-1.9h-.67v-.42h12.98v.42h-.63c-1.46,0-2.16.63-2.11,1.9Z"/>
        <path class="cls-1" d="M168.57,7.5h-.13c-.03-.73-.3-1.36-.82-1.88-.52-.52-1.15-.78-1.88-.78h-.55v-.42h3.37v3.08ZM168.57,30.85v3.08h-3.37v-.42h.55c.73,0,1.35-.26,1.88-.78.52-.52.79-1.14.82-1.88h.13ZM175.9,4.43v29.5h-7.46V4.43h7.46ZM187.61,4.43v1.98h-11.84v-1.98h11.84ZM185.46,18.42v1.94h-9.69v-1.94h9.69ZM186.94,31.95l1.39,1.98h-12.56v-1.98h11.17ZM190.18,24.74l-1.73,9.19h-8.72l1.52-1.98c1.38,0,2.63-.29,3.75-.86,1.12-.58,2.09-1.4,2.91-2.49.81-1.08,1.45-2.37,1.9-3.86h.38ZM185.46,14.04v4.47h-4.47v-.08c1.18-.03,2.16-.44,2.93-1.22.77-.79,1.14-1.76,1.12-2.91v-.25h.42ZM185.46,20.27v4.47h-.42v-.29c0-1.15-.38-2.11-1.14-2.89-.76-.77-1.73-1.17-2.91-1.2v-.08h4.47ZM187.61,6.28v5.39h-.42v-.42c0-1.49-.43-2.67-1.29-3.54-.86-.87-2.04-1.32-3.56-1.35v-.08h5.27ZM187.61,3.67v1.22l-5.14-.46c.62,0,1.27-.04,1.96-.13.69-.08,1.33-.18,1.92-.29.59-.11,1.01-.22,1.26-.34Z"/>
        <path class="cls-1" d="M196.84,7.5h-.13c-.03-.73-.3-1.36-.82-1.88-.52-.52-1.15-.78-1.88-.78h-.55v-.42h3.37v3.08ZM196.84,30.85v3.08h-3.37v-.42h.55c.73,0,1.35-.26,1.88-.78.52-.52.79-1.14.82-1.88h.13ZM204.22,4.43v29.5h-7.5V4.43h7.5ZM208.94,4.43c1.26,0,2.53.13,3.79.38,1.26.25,2.41.68,3.43,1.29,1.03.6,1.84,1.42,2.44,2.44.6,1.03.91,2.31.91,3.86,0,1.12-.22,2.26-.65,3.41-.44,1.15-1.15,2.15-2.15,2.99-1,.84-2.34,1.38-4.02,1.6,1.07.31,2,.85,2.8,1.62.8.77,1.45,1.55,1.96,2.34.03.08.17.34.42.76s.58.94.99,1.56c.41.62.82,1.25,1.24,1.9.42.65.83,1.22,1.22,1.73.65.82,1.21,1.45,1.71,1.92.49.46,1,.79,1.52.97.52.18,1.13.29,1.83.32v.42h-4.68c-1.6,0-3.07-.12-4.4-.36-1.33-.24-2.52-.68-3.56-1.33-1.04-.65-1.95-1.62-2.74-2.91-.28-.42-.53-.89-.76-1.41-.23-.52-.45-1.04-.67-1.56-.23-.52-.42-1.03-.59-1.52-.17-.49-.32-.95-.46-1.39-.14-.44-.27-.81-.38-1.12-.34-.95-.72-1.64-1.16-2.04-.44-.41-.89-.67-1.37-.78v-.42h.97c.79,0,1.52-.17,2.19-.51.67-.34,1.25-.87,1.73-1.6.48-.73.81-1.7,1.01-2.91.06-.25.1-.53.13-.84.03-.31.03-.66,0-1.05-.11-2.05-.63-3.51-1.54-4.38-.91-.87-2.03-1.32-3.35-1.35h-2.65c-.14-.67-.28-1.35-.42-2.02h5.27ZM204.09,30.85h.13c0,.73.27,1.36.8,1.88.53.52,1.17.78,1.9.78h.51v.42h-3.33v-3.08Z"/>
        <path class="cls-1" d="M236.96,3.63c.28.11.71.23,1.29.34.58.11,1.21.21,1.92.29.7.08,1.35.13,1.94.13l-5.14.46v-1.22ZM264.73,4.39v1.94h-27.77v-1.94h27.77ZM242.23,6.2v.13c-1.52.03-2.7.48-3.56,1.35-.86.87-1.29,2.05-1.29,3.54v.38l-.42.04v-5.44h5.27ZM247.24,30.85v3.08h-3.37v-.42h.55c.73,0,1.36-.26,1.88-.78.52-.52.79-1.14.82-1.88h.13ZM254.57,4.55v29.37h-7.46V4.55h7.46ZM254.45,30.85h.13c.03.73.3,1.36.82,1.88.52.52,1.14.78,1.88.78h.55v.42h-3.37v-3.08ZM264.73,6.2v5.44l-.42-.04v-.38c0-1.49-.43-2.67-1.29-3.54-.86-.87-2.04-1.32-3.56-1.35v-.13h5.27ZM264.73,3.63v1.22l-5.14-.46c.62,0,1.27-.04,1.96-.13.69-.08,1.33-.18,1.92-.29.59-.11,1.01-.22,1.26-.34Z"/>
        <path class="cls-1" d="M267.89,30.85c-.25.56-.31,1.04-.17,1.43.14.39.39.7.74.91.35.21.7.32,1.03.32h.38v.42h-9.23v-.42h.38c.65,0,1.31-.2,2-.61.69-.41,1.26-1.09,1.71-2.04h3.16ZM276.95,3.5l.04,5.86-10.41,24.44h-3.25l10.96-24.4c.14-.2.32-.55.53-1.07.21-.52.45-1.09.72-1.71.27-.62.5-1.21.7-1.77.2-.56.31-1.01.34-1.35h.38ZM280.87,24.36v1.94h-12.18v-1.94h12.18ZM276.95,3.5l14.16,30.17h-8.85l-8.43-20.73,3.12-9.44ZM281.08,30.85h8.68c.45.96,1.02,1.64,1.71,2.04.69.41,1.35.61,2,.61h.34v.42h-14.71v-.42h.38c.56,0,1.06-.23,1.5-.7.44-.46.47-1.12.11-1.96Z"/>
        <path class="cls-1" d="M298.23,7.5h-.13c-.03-.73-.3-1.36-.82-1.88-.52-.52-1.15-.78-1.88-.78h-.55v-.42h3.37v3.08ZM298.23,30.85v3.08h-3.37v-.42h.55c.73,0,1.35-.26,1.88-.78.52-.52.79-1.14.82-1.88h.13ZM305.61,4.43v29.5h-7.5V4.43h7.5ZM310.33,4.43c1.26,0,2.53.13,3.79.38,1.26.25,2.41.68,3.43,1.29,1.03.6,1.84,1.42,2.44,2.44.6,1.03.91,2.31.91,3.86,0,1.12-.22,2.26-.65,3.41-.44,1.15-1.15,2.15-2.15,2.99-1,.84-2.34,1.38-4.02,1.6,1.07.31,2,.85,2.8,1.62.8.77,1.45,1.55,1.96,2.34.03.08.17.34.42.76s.58.94.99,1.56c.41.62.82,1.25,1.24,1.9.42.65.83,1.22,1.22,1.73.65.82,1.21,1.45,1.71,1.92.49.46,1,.79,1.52.97.52.18,1.13.29,1.83.32v.42h-4.68c-1.6,0-3.07-.12-4.4-.36-1.33-.24-2.52-.68-3.56-1.33-1.04-.65-1.95-1.62-2.74-2.91-.28-.42-.53-.89-.76-1.41-.23-.52-.45-1.04-.67-1.56-.23-.52-.42-1.03-.59-1.52-.17-.49-.32-.95-.46-1.39-.14-.44-.27-.81-.38-1.12-.34-.95-.72-1.64-1.16-2.04-.44-.41-.89-.67-1.37-.78v-.42h.97c.79,0,1.52-.17,2.19-.51.67-.34,1.25-.87,1.73-1.6.48-.73.81-1.7,1.01-2.91.06-.25.1-.53.13-.84.03-.31.03-.66,0-1.05-.11-2.05-.63-3.51-1.54-4.38-.91-.87-2.03-1.32-3.35-1.35h-2.65c-.14-.67-.28-1.35-.42-2.02h5.27ZM305.48,30.85h.13c0,.73.27,1.36.8,1.88.53.52,1.17.78,1.9.78h.51v.42h-3.33v-3.08Z"/>
        <path class="cls-1" d="M344.21,3.84c3.51,0,6.55.62,9.1,1.85,2.56,1.24,4.52,2.99,5.9,5.27,1.38,2.28,2.06,5.01,2.06,8.22s-.69,5.91-2.06,8.2c-1.38,2.29-3.34,4.05-5.9,5.29-2.56,1.24-5.59,1.85-9.1,1.85s-6.54-.62-9.08-1.85c-2.54-1.24-4.5-2.99-5.88-5.27-1.38-2.28-2.06-5.01-2.06-8.22s.69-5.91,2.06-8.2c1.38-2.29,3.34-4.05,5.88-5.29,2.54-1.24,5.57-1.85,9.08-1.85ZM344.21,32.58c1.85,0,3.45-.54,4.78-1.62,1.33-1.08,2.36-2.62,3.08-4.61.72-1.99,1.07-4.38,1.07-7.16s-.36-5.17-1.07-7.16c-.72-1.99-1.74-3.53-3.08-4.61-1.33-1.08-2.93-1.62-4.78-1.62s-3.44.54-4.76,1.62c-1.32,1.08-2.34,2.62-3.06,4.61-.72,2-1.07,4.38-1.07,7.16s.36,5.17,1.07,7.16c.72,2,1.73,3.53,3.06,4.61,1.32,1.08,2.91,1.62,4.76,1.62Z"/>
        <path class="cls-1" d="M363.47,3.63c.28.11.71.23,1.29.34.58.11,1.21.21,1.92.29.7.08,1.35.13,1.94.13l-5.14.46v-1.22ZM391.24,4.39v1.94h-27.77v-1.94h27.77ZM368.73,6.2v.13c-1.52.03-2.7.48-3.56,1.35-.86.87-1.29,2.05-1.29,3.54v.38l-.42.04v-5.44h5.27ZM373.75,30.85v3.08h-3.37v-.42h.55c.73,0,1.36-.26,1.88-.78.52-.52.79-1.14.82-1.88h.13ZM381.08,4.55v29.37h-7.46V4.55h7.46ZM380.95,30.85h.13c.03.73.3,1.36.82,1.88.52.52,1.14.78,1.88.78h.55v.42h-3.37v-3.08ZM391.24,6.2v5.44l-.42-.04v-.38c0-1.49-.43-2.67-1.29-3.54-.86-.87-2.04-1.32-3.56-1.35v-.13h5.27ZM391.24,3.63v1.22l-5.14-.46c.62,0,1.27-.04,1.96-.13.69-.08,1.33-.18,1.92-.29.59-.11,1.01-.22,1.26-.34Z"/>
        <path class="cls-1" d="M434.47,21.62l.72,7.46c-.59.98-1.4,1.88-2.42,2.7-1.03.82-2.31,1.47-3.86,1.98-1.55.51-3.4.76-5.56.76-3.6-.03-6.73-.65-9.4-1.85-2.67-1.21-4.73-2.95-6.17-5.23-1.45-2.28-2.17-5.04-2.17-8.3s.71-5.91,2.13-8.2c1.42-2.29,3.46-4.05,6.13-5.27,2.67-1.22,5.86-1.83,9.57-1.83,2.3,0,4.36.21,6.17.63,1.81.42,3.31.91,4.49,1.47l-.17,7.67h-.38c-.79-2.89-2.02-4.92-3.69-6.09-1.67-1.17-3.62-1.75-5.84-1.75s-4.02.53-5.56,1.6c-1.55,1.07-2.73,2.59-3.56,4.55-.83,1.97-1.24,4.33-1.24,7.08s.39,5.18,1.18,7.18c.79,2.01,1.9,3.56,3.35,4.66,1.45,1.1,3.17,1.67,5.16,1.73,2.22,0,4.04-.34,5.46-1.03,1.42-.69,2.55-1.84,3.39-3.46.84-1.62,1.49-3.77,1.94-6.47h.34Z"/>
        <path class="cls-1" d="M442.81,7.5h-.13c-.03-.73-.3-1.36-.82-1.88-.52-.52-1.15-.78-1.88-.78h-.55v-.42h3.37v3.08ZM442.81,30.85v3.08h-3.37v-.42h.55c.73,0,1.35-.26,1.88-.78.52-.52.79-1.14.82-1.88h.13ZM450.19,4.43v29.5h-7.5V4.43h7.5ZM454.91,4.43c1.26,0,2.53.13,3.79.38,1.26.25,2.41.68,3.43,1.29,1.03.6,1.84,1.42,2.44,2.44.6,1.03.91,2.31.91,3.86,0,1.12-.22,2.26-.65,3.41-.44,1.15-1.15,2.15-2.15,2.99-1,.84-2.34,1.38-4.02,1.6,1.07.31,2,.85,2.8,1.62.8.77,1.45,1.55,1.96,2.34.03.08.17.34.42.76s.58.94.99,1.56c.41.62.82,1.25,1.24,1.9.42.65.83,1.22,1.22,1.73.65.82,1.21,1.45,1.71,1.92.49.46,1,.79,1.52.97.52.18,1.13.29,1.83.32v.42h-4.68c-1.6,0-3.07-.12-4.4-.36-1.33-.24-2.52-.68-3.56-1.33-1.04-.65-1.95-1.62-2.74-2.91-.28-.42-.53-.89-.76-1.41-.23-.52-.45-1.04-.67-1.56-.23-.52-.42-1.03-.59-1.52-.17-.49-.32-.95-.46-1.39-.14-.44-.27-.81-.38-1.12-.34-.95-.72-1.64-1.16-2.04-.44-.41-.89-.67-1.37-.78v-.42h.97c.79,0,1.52-.17,2.19-.51.67-.34,1.25-.87,1.73-1.6.48-.73.81-1.7,1.01-2.91.06-.25.1-.53.13-.84.03-.31.03-.66,0-1.05-.11-2.05-.63-3.51-1.54-4.38-.91-.87-2.03-1.32-3.35-1.35h-2.65c-.14-.67-.28-1.35-.42-2.02h5.27ZM450.06,30.85h.13c0,.73.27,1.36.8,1.88.53.52,1.17.78,1.9.78h.51v.42h-3.33v-3.08Z"/>
        <path class="cls-1" d="M475.68,7.5h-.13c-.03-.73-.3-1.36-.82-1.88-.52-.52-1.15-.78-1.88-.78h-.55v-.42h3.37v3.08ZM475.68,30.85v3.08h-3.37v-.42h.55c.73,0,1.35-.26,1.88-.78.52-.52.79-1.14.82-1.88h.13ZM483.02,4.43v29.5h-7.46V4.43h7.46ZM494.73,4.43v1.98h-11.84v-1.98h11.84ZM492.58,18.42v1.94h-9.69v-1.94h9.69ZM494.06,31.95l1.39,1.98h-12.56v-1.98h11.17ZM497.3,24.74l-1.73,9.19h-8.72l1.52-1.98c1.38,0,2.63-.29,3.75-.86,1.12-.58,2.09-1.4,2.91-2.49.81-1.08,1.45-2.37,1.9-3.86h.38ZM492.58,14.04v4.47h-4.47v-.08c1.18-.03,2.16-.44,2.93-1.22.77-.79,1.14-1.76,1.12-2.91v-.25h.42ZM492.58,20.27v4.47h-.42v-.29c0-1.15-.38-2.11-1.14-2.89-.76-.77-1.73-1.17-2.91-1.2v-.08h4.47ZM494.73,6.28v5.39h-.42v-.42c0-1.49-.43-2.67-1.29-3.54-.86-.87-2.04-1.32-3.56-1.35v-.08h5.27ZM494.73,3.67v1.22l-5.14-.46c.62,0,1.27-.04,1.96-.13.69-.08,1.33-.18,1.92-.29.59-.11,1.01-.22,1.26-.34Z"/>
        <path class="cls-1" d="M504.8,30.85c-.25.56-.31,1.04-.17,1.43.14.39.39.7.74.91.35.21.7.32,1.03.32h.38v.42h-9.23v-.42h.38c.65,0,1.31-.2,2-.61.69-.41,1.26-1.09,1.71-2.04h3.16ZM513.86,3.5l.04,5.86-10.41,24.44h-3.25l10.96-24.4c.14-.2.32-.55.53-1.07.21-.52.45-1.09.72-1.71.27-.62.5-1.21.7-1.77.2-.56.31-1.01.34-1.35h.38ZM517.78,24.36v1.94h-12.18v-1.94h12.18ZM513.86,3.5l14.16,30.17h-8.85l-8.43-20.73,3.12-9.44ZM517.99,30.85h8.68c.45.96,1.02,1.64,1.71,2.04.69.41,1.35.61,2,.61h.34v.42h-14.71v-.42h.38c.56,0,1.06-.23,1.5-.7.44-.46.47-1.12.11-1.96Z"/>
        <path class="cls-1" d="M526.63,3.63c.28.11.71.23,1.29.34.58.11,1.21.21,1.92.29.7.08,1.35.13,1.94.13l-5.14.46v-1.22ZM554.4,4.39v1.94h-27.77v-1.94h27.77ZM531.9,6.2v.13c-1.52.03-2.7.48-3.56,1.35-.86.87-1.29,2.05-1.29,3.54v.38l-.42.04v-5.44h5.27ZM536.91,30.85v3.08h-3.37v-.42h.55c.73,0,1.36-.26,1.88-.78.52-.52.79-1.14.82-1.88h.13ZM544.25,4.55v29.37h-7.46V4.55h7.46ZM544.12,30.85h.13c.03.73.3,1.36.82,1.88.52.52,1.14.78,1.88.78h.55v.42h-3.37v-3.08ZM554.4,6.2v5.44l-.42-.04v-.38c0-1.49-.43-2.67-1.29-3.54-.86-.87-2.04-1.32-3.56-1.35v-.13h5.27ZM554.4,3.63v1.22l-5.14-.46c.62,0,1.27-.04,1.96-.13.69-.08,1.33-.18,1.92-.29.59-.11,1.01-.22,1.26-.34Z"/>
        <path class="cls-1" d="M560.6,7.5h-.13c-.03-.73-.3-1.36-.82-1.88-.52-.52-1.15-.78-1.88-.78h-.55v-.42h3.37v3.08ZM560.6,30.85v3.08h-3.37v-.42h.55c.73,0,1.35-.26,1.88-.78.52-.52.79-1.14.82-1.88h.13ZM567.93,4.43v29.5h-7.46V4.43h7.46ZM567.8,7.5v-3.08h3.37v.42h-.55c-.73,0-1.36.26-1.88.78-.52.52-.79,1.15-.82,1.88h-.13ZM567.8,30.85h.13c.03.73.3,1.36.82,1.88.52.52,1.14.78,1.88.78h.55v.42h-3.37v-3.08Z"/>
        <path class="cls-1" d="M591.44,3.84c3.51,0,6.55.62,9.1,1.85,2.56,1.24,4.52,2.99,5.9,5.27,1.38,2.28,2.06,5.01,2.06,8.22s-.69,5.91-2.06,8.2c-1.38,2.29-3.34,4.05-5.9,5.29-2.56,1.24-5.59,1.85-9.1,1.85s-6.54-.62-9.08-1.85c-2.54-1.24-4.5-2.99-5.88-5.27-1.38-2.28-2.06-5.01-2.06-8.22s.69-5.91,2.06-8.2c1.38-2.29,3.34-4.05,5.88-5.29,2.54-1.24,5.57-1.85,9.08-1.85ZM591.44,32.58c1.85,0,3.45-.54,4.78-1.62,1.33-1.08,2.36-2.62,3.08-4.61.72-1.99,1.07-4.38,1.07-7.16s-.36-5.17-1.07-7.16c-.72-1.99-1.74-3.53-3.08-4.61-1.33-1.08-2.93-1.62-4.78-1.62s-3.44.54-4.76,1.62c-1.32,1.08-2.34,2.62-3.06,4.61-.72,2-1.07,4.38-1.07,7.16s.36,5.17,1.07,7.16c.72,2,1.73,3.53,3.06,4.61,1.32,1.08,2.91,1.62,4.76,1.62Z"/>
        <path class="cls-1" d="M614.79,30.93v2.99h-3.5v-.42h.8c.7,0,1.31-.25,1.81-.76.51-.51.76-1.11.76-1.81h.13ZM614.58,3.8l7.38,7.8.04,22.33h-7.33V9.06c0-1.6-.17-3.36-.51-5.27h.42ZM614.58,3.8l27.64,25.45.51,5.27-27.64-25.41-.51-5.31ZM622,30.93c0,.7.25,1.31.76,1.81.51.51,1.11.76,1.81.76h.8v.42h-3.5v-2.99h.13ZM631.9,4.43h3.5v2.99h-.08c-.03-.73-.29-1.34-.78-1.83-.49-.49-1.1-.74-1.83-.74h-.8v-.42ZM642.6,4.43v24.69c0,1.1.05,2.05.15,2.87.1.82.22,1.66.36,2.53h-.38l-7.42-8.3V4.43h7.29ZM645.97,4.43v.42h-.76c-.7,0-1.31.25-1.81.74-.51.49-.77,1.1-.8,1.83h-.13v-2.99h3.5Z"/>
        <path class="cls-1" d="M659.92,3.84c.56,0,1.31.03,2.25.08.94.06,1.91.13,2.91.23,1,.1,1.88.2,2.63.29.76.1,1.26.2,1.52.32l-.67,6.03h-.42c0-1.49-.57-2.7-1.71-3.62-1.14-.93-2.68-1.39-4.61-1.39-1.69,0-3.03.36-4.02,1.07s-1.52,1.62-1.58,2.72c-.08.93.21,1.69.88,2.28.67.59,1.49,1.14,2.44,1.64l7.96,4.47c1.43.7,2.54,1.69,3.31,2.95s1.1,2.8.99,4.59c-.14,2.89-1.29,5.12-3.43,6.68-2.15,1.56-5.06,2.34-8.74,2.34-1.43,0-2.77-.11-4-.34-1.24-.23-2.32-.54-3.25-.95-.93-.41-1.66-.86-2.19-1.37-.25-.65-.36-1.45-.32-2.4.04-.95.2-1.9.48-2.84.28-.94.62-1.71,1.01-2.3h.38c-.08,1.46.2,2.82.86,4.09.66,1.26,1.65,2.28,2.97,3.03,1.32.76,2.89,1.14,4.72,1.14,1.94-.03,3.41-.48,4.4-1.35,1-.87,1.5-1.9,1.5-3.08,0-.9-.31-1.71-.93-2.42-.62-.72-1.62-1.41-2.99-2.09l-7.12-4.05c-1.71-.87-2.96-2.03-3.73-3.48-.77-1.45-1.06-3.06-.86-4.83.14-1.54.6-2.87,1.39-3.98.79-1.11,1.85-1.97,3.2-2.57,1.35-.6,2.94-.91,4.76-.91ZM669.32,4.26l-.13.88h-5.52v-.88h5.65Z"/>
      </g>
    </g>
  </g>
</svg>